# Blender v2.78 (sub 0) OBJ File: ''
# www.blender.org
mtllib trackhooks2.mtl
o pCylinder1
v -8.505831 3.046806 -6.492466
v -8.505831 1.762694 -6.492466
v -8.027738 3.046806 -6.492466
v -8.027738 1.762694 -6.492466
v -8.051136 3.046806 -6.344728
v -8.051136 1.762694 -6.344728
v -8.119044 3.046806 -6.211451
v -8.119044 1.762694 -6.211451
v -8.224813 3.046806 -6.105680
v -8.224813 1.762695 -6.105680
v -8.358091 3.046806 -6.037774
v -8.358091 1.762695 -6.037774
v -8.505831 3.046806 -6.014372
v -8.505831 1.762695 -6.014372
v -8.653569 3.046806 -6.037774
v -8.653569 1.762695 -6.037774
v -8.786846 3.046806 -6.105680
v -8.786846 1.762695 -6.105680
v -8.892618 3.046806 -6.211451
v -8.892618 1.762694 -6.211451
v -8.960526 3.046806 -6.344728
v -8.960526 1.762694 -6.344728
v -8.983925 3.046806 -6.492466
v -8.983925 1.762694 -6.492466
v -8.960526 3.046806 -6.640206
v -8.960526 1.762694 -6.640206
v -8.892618 3.046806 -6.773484
v -8.892618 1.762694 -6.773484
v -8.786846 3.046806 -6.879255
v -8.786846 1.762694 -6.879255
v -8.653569 3.046806 -6.947162
v -8.653569 1.762694 -6.947162
v -8.505831 3.046806 -6.970563
v -8.505831 1.762695 -6.970563
v -8.358091 3.046806 -6.947162
v -8.358091 1.762694 -6.947162
v -8.224813 3.046806 -6.879255
v -8.224813 1.762694 -6.879255
v -8.051136 3.046806 -6.640206
v -8.119044 3.046806 -6.773484
v -8.119044 1.762694 -6.773484
v -8.051136 1.762694 -6.640206
vt 0.6562 0.8438
vt 0.6486 0.8920
vt 0.5000 0.8375
vt 0.6486 0.7955
vt 0.6264 0.7519
vt 0.5918 0.7173
vt 0.5483 0.6951
vt 0.5000 0.6875
vt 0.4517 0.6951
vt 0.4082 0.7173
vt 0.3736 0.7519
vt 0.3514 0.7955
vt 0.3438 0.8438
vt 0.3514 0.8920
vt 0.3736 0.9356
vt 0.4082 0.9702
vt 0.4517 0.9924
vt 0.5000 1.0000
vt 0.5483 0.9924
vt 0.5918 0.9702
vt 0.6264 0.9356
vt 0.6486 0.1080
vt 0.6562 0.1562
vt 0.5000 0.1500
vt 0.6486 0.2045
vt 0.6264 0.2481
vt 0.5918 0.2827
vt 0.5483 0.3049
vt 0.5000 0.3125
vt 0.4517 0.3049
vt 0.4082 0.2827
vt 0.3736 0.2481
vt 0.3514 0.2045
vt 0.3438 0.1562
vt 0.3514 0.1080
vt 0.3736 0.0644
vt 0.4082 0.0298
vt 0.4517 0.0076
vt 0.5000 -0.0000
vt 0.5483 0.0076
vt 0.5918 0.0298
vt 0.6264 0.0644
vt 0.6125 0.3125
vt 0.6250 0.3125
vt 0.6250 0.6884
vt 0.6125 0.6884
vt 0.6000 0.3125
vt 0.6000 0.6884
vt 0.5875 0.3125
vt 0.5875 0.6884
vt 0.5750 0.3125
vt 0.5750 0.6884
vt 0.5625 0.3125
vt 0.5625 0.6884
vt 0.5500 0.3125
vt 0.5500 0.6884
vt 0.5375 0.3125
vt 0.5375 0.6884
vt 0.5250 0.3125
vt 0.5250 0.6884
vt 0.5125 0.3125
vt 0.5125 0.6884
vt 0.5000 0.3125
vt 0.5000 0.6884
vt 0.4875 0.3125
vt 0.4875 0.6884
vt 0.4750 0.3125
vt 0.4750 0.6884
vt 0.4625 0.3125
vt 0.4625 0.6884
vt 0.4500 0.3125
vt 0.4500 0.6884
vt 0.4375 0.3125
vt 0.4375 0.6884
vt 0.4250 0.3125
vt 0.4250 0.6884
vt 0.4125 0.3125
vt 0.4125 0.6884
vt 0.4000 0.3125
vt 0.4000 0.6884
vt 0.3875 0.3125
vt 0.3875 0.6884
vt 0.3750 0.3125
vt 0.3750 0.6884
vn 0.0000 1.0000 0.0000
vn 0.0000 -1.0000 0.0000
vn 1.0000 0.0000 0.0000
vn 0.9511 0.0000 -0.3090
vn 0.9511 0.0000 0.3090
vn 0.8090 0.0000 0.5878
vn 0.5878 0.0000 0.8090
vn 0.3090 0.0000 0.9511
vn -0.0000 0.0000 1.0000
vn -0.3090 0.0000 0.9511
vn -0.5878 0.0000 0.8090
vn -0.8090 0.0000 0.5878
vn -0.9511 0.0000 0.3090
vn -1.0000 0.0000 0.0000
vn -0.9511 0.0000 -0.3090
vn -0.8090 0.0000 -0.5878
vn -0.5878 0.0000 -0.8090
vn -0.3090 0.0000 -0.9511
vn -0.0000 0.0000 -1.0000
vn 0.3090 0.0000 -0.9511
vn 0.5878 0.0000 -0.8090
vn 0.8090 0.0000 -0.5878
usemtl initialShadingGroup
s 1
f 3/1/1 39/2/1 1/3/1
f 5/4/1 3/1/1 1/3/1
f 7/5/1 5/4/1 1/3/1
f 9/6/1 7/5/1 1/3/1
f 11/7/1 9/6/1 1/3/1
f 13/8/1 11/7/1 1/3/1
f 15/9/1 13/8/1 1/3/1
f 17/10/1 15/9/1 1/3/1
f 19/11/1 17/10/1 1/3/1
f 21/12/1 19/11/1 1/3/1
f 23/13/1 21/12/1 1/3/1
f 25/14/1 23/13/1 1/3/1
f 27/15/1 25/14/1 1/3/1
f 29/16/1 27/15/1 1/3/1
f 31/17/1 29/16/1 1/3/1
f 33/18/1 31/17/1 1/3/1
f 35/19/1 33/18/1 1/3/1
f 37/20/1 35/19/1 1/3/1
f 40/21/1 37/20/1 1/3/1
f 39/2/1 40/21/1 1/3/1
f 42/22/2 4/23/2 2/24/2
f 4/23/2 6/25/2 2/24/2
f 6/25/2 8/26/2 2/24/2
f 8/26/2 10/27/2 2/24/2
f 10/27/2 12/28/2 2/24/2
f 12/28/2 14/29/2 2/24/2
f 14/29/2 16/30/2 2/24/2
f 16/30/2 18/31/2 2/24/2
f 18/31/2 20/32/2 2/24/2
f 20/32/2 22/33/2 2/24/2
f 22/33/2 24/34/2 2/24/2
f 24/34/2 26/35/2 2/24/2
f 26/35/2 28/36/2 2/24/2
f 28/36/2 30/37/2 2/24/2
f 30/37/2 32/38/2 2/24/2
f 32/38/2 34/39/2 2/24/2
f 34/39/2 36/40/2 2/24/2
f 36/40/2 38/41/2 2/24/2
f 38/41/2 41/42/2 2/24/2
f 41/42/2 42/22/2 2/24/2
f 4/43/3 42/44/4 39/45/4 3/46/3
f 6/47/5 4/43/3 3/46/3 5/48/5
f 8/49/6 6/47/5 5/48/5 7/50/6
f 10/51/7 8/49/6 7/50/6 9/52/7
f 12/53/8 10/51/7 9/52/7 11/54/8
f 14/55/9 12/53/8 11/54/8 13/56/9
f 16/57/10 14/55/9 13/56/9 15/58/10
f 18/59/11 16/57/10 15/58/10 17/60/11
f 20/61/12 18/59/11 17/60/11 19/62/12
f 22/63/13 20/61/12 19/62/12 21/64/13
f 24/65/14 22/63/13 21/64/13 23/66/14
f 26/67/15 24/65/14 23/66/14 25/68/15
f 28/69/16 26/67/15 25/68/15 27/70/16
f 30/71/17 28/69/16 27/70/16 29/72/17
f 32/73/18 30/71/17 29/72/17 31/74/18
f 34/75/19 32/73/18 31/74/18 33/76/19
f 36/77/20 34/75/19 33/76/19 35/78/20
f 38/79/21 36/77/20 35/78/20 37/80/21
f 41/81/22 38/79/21 37/80/21 40/82/22
f 42/83/4 41/81/22 40/82/22 39/84/4
o pCylinder2
v -9.078686 3.034073 -5.463696
v -9.146937 3.034073 -5.597652
v -9.146937 1.780005 -5.597651
v -9.078686 1.780004 -5.463696
v -9.253245 3.034073 -5.703958
v -9.253245 1.780004 -5.703957
v -9.387199 3.034073 -5.772211
v -9.387199 1.780004 -5.772211
v -9.535687 3.034073 -5.795728
v -9.535687 1.780004 -5.795727
v -9.684176 3.034073 -5.772211
v -9.684176 1.780004 -5.772211
v -9.818131 3.034073 -5.703958
v -9.818131 1.780004 -5.703957
v -9.924437 3.034073 -5.597652
v -9.924437 1.780005 -5.597651
v -9.992691 3.034073 -5.463696
v -9.992691 1.780004 -5.463696
v -10.016211 3.034073 -5.315208
v -10.016211 1.780004 -5.315207
v -9.992691 3.034073 -5.166718
v -9.992691 1.780004 -5.166717
v -9.924437 3.034073 -5.032764
v -9.924437 1.780004 -5.032764
v -9.818131 3.034073 -4.926459
v -9.818131 1.780004 -4.926458
v -9.684176 3.034073 -4.858205
v -9.684176 1.780004 -4.858204
v -9.535687 3.034073 -4.834688
v -9.535687 1.780004 -4.834687
v -9.387199 3.034073 -4.858205
v -9.387199 1.780004 -4.858204
v -9.253245 3.034073 -4.926459
v -9.253245 1.780004 -4.926458
v -9.146937 3.034073 -5.032764
v -9.146937 1.780004 -5.032764
v -9.078686 3.034073 -5.166718
v -9.078686 1.780004 -5.166717
v -9.055167 3.034073 -5.315208
v -9.055167 1.780004 -5.315207
v -9.535687 3.034073 -5.315208
v -9.535687 1.780004 -5.315207
vt 0.3750 0.3125
vt 0.3875 0.3125
vt 0.3875 0.6884
vt 0.3750 0.6884
vt 0.4000 0.3125
vt 0.4000 0.6884
vt 0.4125 0.3125
vt 0.4125 0.6884
vt 0.4250 0.3125
vt 0.4250 0.6884
vt 0.4375 0.3125
vt 0.4375 0.6884
vt 0.4500 0.3125
vt 0.4500 0.6884
vt 0.4625 0.3125
vt 0.4625 0.6884
vt 0.4750 0.3125
vt 0.4750 0.6884
vt 0.4875 0.3125
vt 0.4875 0.6884
vt 0.5000 0.3125
vt 0.5000 0.6884
vt 0.5125 0.3125
vt 0.5125 0.6884
vt 0.5250 0.3125
vt 0.5250 0.6884
vt 0.5375 0.3125
vt 0.5375 0.6884
vt 0.5500 0.3125
vt 0.5500 0.6884
vt 0.5625 0.3125
vt 0.5625 0.6884
vt 0.5750 0.3125
vt 0.5750 0.6884
vt 0.5875 0.3125
vt 0.5875 0.6884
vt 0.6000 0.3125
vt 0.6000 0.6884
vt 0.6125 0.3125
vt 0.6125 0.6884
vt 0.6250 0.3125
vt 0.6250 0.6884
vt 0.6264 0.0644
vt 0.6486 0.1080
vt 0.5000 0.1500
vt 0.5918 0.0298
vt 0.5483 0.0076
vt 0.5000 -0.0000
vt 0.4517 0.0076
vt 0.4082 0.0298
vt 0.3736 0.0644
vt 0.3514 0.1080
vt 0.3438 0.1562
vt 0.3514 0.2045
vt 0.3736 0.2481
vt 0.4082 0.2827
vt 0.4517 0.3049
vt 0.5000 0.3125
vt 0.5483 0.3049
vt 0.5918 0.2827
vt 0.6264 0.2481
vt 0.6486 0.2045
vt 0.6562 0.1562
vt 0.6486 0.8920
vt 0.6264 0.9356
vt 0.5000 0.8375
vt 0.5918 0.9702
vt 0.5483 0.9924
vt 0.5000 1.0000
vt 0.4517 0.9924
vt 0.4082 0.9702
vt 0.3736 0.9356
vt 0.3514 0.8920
vt 0.3438 0.8438
vt 0.3514 0.7955
vt 0.3736 0.7519
vt 0.4082 0.7173
vt 0.4517 0.6951
vt 0.5000 0.6875
vt 0.5483 0.6951
vt 0.5918 0.7173
vt 0.6264 0.7519
vt 0.6486 0.7955
vt 0.6562 0.8438
vn -0.9511 0.0000 0.3090
vn -0.8090 0.0000 0.5878
vn -0.5878 0.0000 0.8090
vn -0.3090 0.0000 0.9511
vn -0.0000 0.0000 1.0000
vn 0.3090 0.0000 0.9511
vn 0.5878 0.0000 0.8090
vn 0.8090 0.0000 0.5878
vn 0.9511 0.0000 0.3090
vn 1.0000 0.0000 0.0000
vn 0.9511 0.0000 -0.3090
vn 0.8090 -0.0000 -0.5878
vn 0.5878 -0.0000 -0.8090
vn 0.3090 -0.0000 -0.9511
vn -0.0000 -0.0000 -1.0000
vn -0.3090 -0.0000 -0.9511
vn -0.5878 -0.0000 -0.8090
vn -0.8090 -0.0000 -0.5878
vn -0.9511 -0.0000 -0.3090
vn -1.0000 0.0000 0.0000
vn 0.0000 -1.0000 0.0000
vn 0.0000 1.0000 0.0000
usemtl initialShadingGroup
s 1
f 43/85/23 44/86/24 45/87/24 46/88/23
f 44/86/24 47/89/25 48/90/25 45/87/24
f 47/89/25 49/91/26 50/92/26 48/90/25
f 49/91/26 51/93/27 52/94/27 50/92/26
f 51/93/27 53/95/28 54/96/28 52/94/27
f 53/95/28 55/97/29 56/98/29 54/96/28
f 55/97/29 57/99/30 58/100/30 56/98/29
f 57/99/30 59/101/31 60/102/31 58/100/30
f 59/101/31 61/103/32 62/104/32 60/102/31
f 61/103/32 63/105/33 64/106/33 62/104/32
f 63/105/33 65/107/34 66/108/34 64/106/33
f 65/107/34 67/109/35 68/110/35 66/108/34
f 67/109/35 69/111/36 70/112/36 68/110/35
f 69/111/36 71/113/37 72/114/37 70/112/36
f 71/113/37 73/115/38 74/116/38 72/114/37
f 73/115/38 75/117/39 76/118/39 74/116/38
f 75/117/39 77/119/40 78/120/40 76/118/39
f 77/119/40 79/121/41 80/122/41 78/120/40
f 79/121/41 81/123/42 82/124/42 80/122/41
f 81/123/42 43/125/23 46/126/23 82/124/42
f 44/127/43 43/128/43 83/129/43
f 47/130/43 44/127/43 83/129/43
f 49/131/43 47/130/43 83/129/43
f 51/132/43 49/131/43 83/129/43
f 53/133/43 51/132/43 83/129/43
f 55/134/43 53/133/43 83/129/43
f 57/135/43 55/134/43 83/129/43
f 59/136/43 57/135/43 83/129/43
f 61/137/43 59/136/43 83/129/43
f 63/138/43 61/137/43 83/129/43
f 65/139/43 63/138/43 83/129/43
f 67/140/43 65/139/43 83/129/43
f 69/141/43 67/140/43 83/129/43
f 71/142/43 69/141/43 83/129/43
f 73/143/43 71/142/43 83/129/43
f 75/144/43 73/143/43 83/129/43
f 77/145/43 75/144/43 83/129/43
f 79/146/43 77/145/43 83/129/43
f 81/147/43 79/146/43 83/129/43
f 43/128/43 81/147/43 83/129/43
f 46/148/44 45/149/44 84/150/44
f 45/149/44 48/151/44 84/150/44
f 48/151/44 50/152/44 84/150/44
f 50/152/44 52/153/44 84/150/44
f 52/153/44 54/154/44 84/150/44
f 54/154/44 56/155/44 84/150/44
f 56/155/44 58/156/44 84/150/44
f 58/156/44 60/157/44 84/150/44
f 60/157/44 62/158/44 84/150/44
f 62/158/44 64/159/44 84/150/44
f 64/159/44 66/160/44 84/150/44
f 66/160/44 68/161/44 84/150/44
f 68/161/44 70/162/44 84/150/44
f 70/162/44 72/163/44 84/150/44
f 72/163/44 74/164/44 84/150/44
f 74/164/44 76/165/44 84/150/44
f 76/165/44 78/166/44 84/150/44
f 78/166/44 80/167/44 84/150/44
f 80/167/44 82/168/44 84/150/44
f 82/168/44 46/148/44 84/150/44
