# Blender v2.78 (sub 0) OBJ File: 'wheel.blend'
# www.blender.org
mtllib wheel.mtl
o Cylinder.001
v 0.000000 -0.421716 -1.362406
v 0.000000 0.421716 -1.362406
v 0.265792 -0.421716 -1.336228
v 0.265792 0.421716 -1.336228
v 0.521370 -0.421716 -1.258699
v 0.521370 0.421716 -1.258699
v 0.756912 -0.421716 -1.132799
v 0.756912 0.421716 -1.132799
v 0.963366 -0.421716 -0.963366
v 0.963366 0.421716 -0.963366
v 1.132799 -0.421716 -0.756912
v 1.132799 0.421716 -0.756912
v 1.258699 -0.421716 -0.521370
v 1.258699 0.421716 -0.521370
v 1.336228 -0.421716 -0.265792
v 1.336228 0.421716 -0.265792
v 1.362406 -0.421716 -0.000000
v 1.362406 0.421716 -0.000000
v 1.336228 -0.421716 0.265792
v 1.336228 0.421716 0.265792
v 1.258699 -0.421716 0.521370
v 1.258699 0.421716 0.521370
v 1.132799 -0.421716 0.756912
v 1.132799 0.421716 0.756912
v 0.963366 -0.421716 0.963366
v 0.963366 0.421716 0.963366
v 0.756912 -0.421716 1.132799
v 0.756912 0.421716 1.132799
v 0.521370 -0.421716 1.258699
v 0.521370 0.421716 1.258699
v 0.265792 -0.421716 1.336228
v 0.265792 0.421716 1.336228
v -0.000000 -0.421716 1.362406
v -0.000000 0.421716 1.362406
v -0.265793 -0.421716 1.336228
v -0.265793 0.421716 1.336228
v -0.521371 -0.421716 1.258699
v -0.521371 0.421716 1.258699
v -0.756913 -0.421716 1.132799
v -0.756913 0.421716 1.132799
v -0.963367 -0.421716 0.963366
v -0.963367 0.421716 0.963366
v -1.132800 -0.421716 0.756911
v -1.132800 0.421716 0.756911
v -1.258699 -0.421716 0.521369
v -1.258699 0.421716 0.521369
v -1.336228 -0.421716 0.265791
v -1.336228 0.421716 0.265791
v -1.362406 -0.421716 -0.000001
v -1.362406 0.421716 -0.000001
v -1.336227 -0.421716 -0.265794
v -1.336227 0.421716 -0.265794
v -1.258698 -0.421716 -0.521372
v -1.258698 0.421716 -0.521372
v -1.132798 -0.421716 -0.756914
v -1.132798 0.421716 -0.756914
v -0.963365 -0.421716 -0.963368
v -0.963365 0.421716 -0.963368
v -0.756911 -0.421716 -1.132800
v -0.756911 0.421716 -1.132800
v -0.521368 -0.421716 -1.258700
v -0.521368 0.421716 -1.258700
v -0.265790 -0.421716 -1.336228
v -0.265790 0.421716 -1.336228
v 0.000000 -0.355775 -0.918911
v 0.000000 0.668415 -0.918911
v 0.179271 -0.355775 -0.901255
v 0.179271 0.668415 -0.901255
v 0.351652 -0.355775 -0.848963
v 0.351652 0.668415 -0.848963
v 0.510520 -0.355775 -0.764047
v 0.510520 0.668415 -0.764047
v 0.649768 -0.355775 -0.649768
v 0.649768 0.668415 -0.649768
v 0.764047 -0.355775 -0.510520
v 0.764047 0.668415 -0.510520
v 0.848963 -0.355775 -0.351652
v 0.848963 0.668415 -0.351652
v 0.901255 -0.355775 -0.179271
v 0.901255 0.668415 -0.179271
v 0.918911 -0.355775 -0.000000
v 0.918911 0.668415 -0.000000
v 0.901255 -0.355775 0.179271
v 0.901255 0.668415 0.179271
v 0.848963 -0.355775 0.351652
v 0.848963 0.668415 0.351652
v 0.764047 -0.355775 0.510520
v 0.764047 0.668415 0.510520
v 0.649768 -0.355775 0.649768
v 0.649768 0.668415 0.649768
v 0.510520 -0.355775 0.764047
v 0.510520 0.668415 0.764047
v 0.351652 -0.355775 0.848963
v 0.351652 0.668415 0.848963
v 0.179270 -0.355775 0.901255
v 0.179270 0.668415 0.901255
v -0.000000 -0.355775 0.918911
v -0.000000 0.668415 0.918911
v -0.179271 -0.355775 0.901255
v -0.179271 0.668415 0.901255
v -0.351653 -0.355775 0.848963
v -0.351653 0.668415 0.848963
v -0.510520 -0.355775 0.764046
v -0.510520 0.668415 0.764046
v -0.649769 -0.355775 0.649768
v -0.649769 0.668415 0.649768
v -0.764047 -0.355775 0.510519
v -0.764047 0.668415 0.510519
v -0.848964 -0.355775 0.351651
v -0.848964 0.668415 0.351651
v -0.901255 -0.355775 0.179270
v -0.901255 0.668415 0.179270
v -0.918911 -0.355775 -0.000001
v -0.918911 0.668415 -0.000001
v -0.901254 -0.355775 -0.179272
v -0.901254 0.668415 -0.179272
v -0.848963 -0.355775 -0.351653
v -0.848963 0.668415 -0.351653
v -0.764046 -0.355775 -0.510521
v -0.764046 0.668415 -0.510521
v -0.649768 -0.355775 -0.649769
v -0.649768 0.668415 -0.649769
v -0.510519 -0.355775 -0.764048
v -0.510519 0.668415 -0.764048
v -0.351651 -0.355775 -0.848964
v -0.351651 0.668415 -0.848964
v -0.179269 -0.355775 -0.901255
v -0.179269 0.668415 -0.901255
vt 0.4654 0.0000
vt 0.4654 0.3111
vt 0.4336 0.3111
vt 0.4336 0.0000
vt 0.4023 0.3111
vt 0.4023 0.0000
vt 0.3728 0.3111
vt 0.3728 0.0000
vt 0.3463 0.3111
vt 0.3463 0.0000
vt 0.3238 0.3111
vt 0.3238 0.0000
vt 0.2064 0.6192
vt 0.2064 0.9303
vt 0.1799 0.9303
vt 0.1799 0.6192
vt 0.1504 0.9303
vt 0.1504 0.6192
vt 0.1191 0.9303
vt 0.1191 0.6192
vt 0.0872 0.9303
vt 0.0872 0.6192
vt 0.0560 0.9303
vt 0.0560 0.6192
vt 0.0265 0.9303
vt 0.0265 0.6192
vt 0.0000 0.9303
vt 0.0000 0.6192
vt 0.7816 0.3111
vt 0.7816 0.6222
vt 0.7551 0.6222
vt 0.7551 0.3111
vt 0.7257 0.6222
vt 0.7257 0.3111
vt 0.6944 0.6222
vt 0.6944 0.3111
vt 0.6625 0.6222
vt 0.6625 0.3111
vt 0.6312 0.6222
vt 0.6312 0.3111
vt 0.6018 0.6222
vt 0.6018 0.3111
vt 0.5752 0.6222
vt 0.5752 0.3111
vt 0.5527 0.6222
vt 0.5527 0.3111
vt 0.3238 0.6222
vt 0.3238 0.3111
vt 0.3503 0.3111
vt 0.3503 0.6222
vt 0.3797 0.3111
vt 0.3797 0.6222
vt 0.4110 0.3111
vt 0.4110 0.6222
vt 0.4429 0.3111
vt 0.4429 0.6222
vt 0.4742 0.3111
vt 0.4742 0.6222
vt 0.5036 0.3111
vt 0.5036 0.6222
vt 0.5301 0.3111
vt 0.5301 0.6222
vt 0.5527 0.3111
vt 0.5527 0.6222
vt 0.5752 0.0000
vt 0.5752 0.3111
vt 0.5527 0.3111
vt 0.5527 0.0000
vt 0.5262 0.3111
vt 0.5262 0.0000
vt 0.1459 0.6192
vt 0.1147 0.6133
vt 0.0852 0.6016
vt 0.0587 0.5847
vt 0.0361 0.5631
vt 0.0184 0.5377
vt 0.0062 0.5096
vt 0.0000 0.4797
vt 0.0000 0.4492
vt 0.0062 0.4193
vt 0.0184 0.3911
vt 0.0361 0.3657
vt 0.0587 0.3442
vt 0.0852 0.3272
vt 0.1147 0.3156
vt 0.1459 0.3096
vt 0.1778 0.3096
vt 0.2091 0.3156
vt 0.2386 0.3272
vt 0.2651 0.3442
vt 0.2876 0.3657
vt 0.3053 0.3911
vt 0.3175 0.4193
vt 0.3238 0.4492
vt 0.3238 0.4797
vt 0.3175 0.5096
vt 0.3053 0.5377
vt 0.2876 0.5631
vt 0.2651 0.5847
vt 0.2386 0.6016
vt 0.2091 0.6133
vt 0.1778 0.6192
vt 0.4967 0.3111
vt 0.4967 0.0000
vt 0.0000 0.1396
vt 0.0062 0.1097
vt 0.0184 0.0815
vt 0.0361 0.0561
vt 0.0587 0.0346
vt 0.0852 0.0176
vt 0.1147 0.0059
vt 0.1459 0.0000
vt 0.1778 0.0000
vt 0.2091 0.0059
vt 0.2386 0.0176
vt 0.2651 0.0346
vt 0.2876 0.0561
vt 0.3053 0.0815
vt 0.3175 0.1097
vt 0.3238 0.1396
vt 0.3238 0.1701
vt 0.3175 0.2000
vt 0.3053 0.2281
vt 0.2876 0.2535
vt 0.2651 0.2751
vt 0.2386 0.2920
vt 0.2091 0.3037
vt 0.1778 0.3096
vt 0.1459 0.3096
vt 0.1147 0.3037
vt 0.0852 0.2920
vt 0.0587 0.2751
vt 0.0361 0.2535
vt 0.0184 0.2281
vt 0.0062 0.2000
vt 0.0000 0.1701
vt 0.4193 0.6222
vt 0.4193 1.0000
vt 0.3978 1.0000
vt 0.3978 0.6222
vt 0.3767 1.0000
vt 0.3767 0.6222
vt 0.3569 1.0000
vt 0.3569 0.6222
vt 0.3390 1.0000
vt 0.3390 0.6222
vt 0.3238 1.0000
vt 0.3238 0.6222
vt 0.7718 0.6222
vt 0.7718 1.0000
vt 0.7539 1.0000
vt 0.7539 0.6222
vt 0.7340 1.0000
vt 0.7340 0.6222
vt 0.7129 1.0000
vt 0.7129 0.6222
vt 0.6914 1.0000
vt 0.6914 0.6222
vt 0.6703 1.0000
vt 0.6703 0.6222
vt 0.6505 1.0000
vt 0.6505 0.6222
vt 0.6326 1.0000
vt 0.6326 0.6222
vt 0.4934 1.0000
vt 0.4934 0.6222
vt 0.5113 0.6222
vt 0.5113 1.0000
vt 0.5311 0.6222
vt 0.5311 1.0000
vt 0.5522 0.6222
vt 0.5522 1.0000
vt 0.5737 0.6222
vt 0.5737 1.0000
vt 0.5948 0.6222
vt 0.5948 1.0000
vt 0.6147 0.6222
vt 0.6147 1.0000
vt 0.6326 0.6222
vt 0.6326 1.0000
vt 0.9512 0.3111
vt 0.9512 0.6889
vt 0.9360 0.6889
vt 0.9360 0.3111
vt 0.9182 0.6889
vt 0.9182 0.3111
vt 0.8983 0.6889
vt 0.8983 0.3111
vt 0.8772 0.6889
vt 0.8772 0.3111
vt 0.8557 0.6889
vt 0.8557 0.3111
vt 0.8346 0.6889
vt 0.8346 0.3111
vt 0.8147 0.6889
vt 0.8147 0.3111
vt 0.7968 0.6889
vt 0.7968 0.3111
vt 0.7816 0.6889
vt 0.7816 0.3111
vt 0.4934 0.6222
vt 0.4934 1.0000
vt 0.4782 1.0000
vt 0.4782 0.6222
vt 0.4603 1.0000
vt 0.4603 0.6222
vt 0.7894 0.1349
vt 0.7812 0.1539
vt 0.7692 0.1710
vt 0.7540 0.1855
vt 0.7361 0.1969
vt 0.7163 0.2048
vt 0.6952 0.2088
vt 0.6737 0.2088
vt 0.6526 0.2048
vt 0.6327 0.1969
vt 0.6148 0.1855
vt 0.5996 0.1710
vt 0.5877 0.1539
vt 0.5794 0.1349
vt 0.5752 0.1147
vt 0.5752 0.0941
vt 0.5794 0.0740
vt 0.5877 0.0550
vt 0.5996 0.0379
vt 0.6148 0.0233
vt 0.6327 0.0119
vt 0.6526 0.0040
vt 0.6737 0.0000
vt 0.6952 0.0000
vt 0.7163 0.0040
vt 0.7361 0.0119
vt 0.7540 0.0233
vt 0.7692 0.0379
vt 0.7812 0.0550
vt 0.7894 0.0740
vt 0.7936 0.0941
vt 0.7936 0.1147
vt 0.4404 1.0000
vt 0.4404 0.6222
vt 0.8212 0.8744
vt 0.8060 0.8599
vt 0.7941 0.8428
vt 0.7858 0.8238
vt 0.7816 0.8036
vt 0.7816 0.7830
vt 0.7858 0.7628
vt 0.7941 0.7438
vt 0.8060 0.7267
vt 0.8212 0.7122
vt 0.8391 0.7008
vt 0.8590 0.6929
vt 0.8801 0.6889
vt 0.9016 0.6889
vt 0.9227 0.6929
vt 0.9425 0.7008
vt 0.9604 0.7122
vt 0.9756 0.7267
vt 0.9876 0.7438
vt 0.9958 0.7628
vt 1.0000 0.7830
vt 1.0000 0.8036
vt 0.9958 0.8238
vt 0.9876 0.8428
vt 0.9756 0.8599
vt 0.9604 0.8744
vt 0.9425 0.8858
vt 0.9227 0.8937
vt 0.9016 0.8977
vt 0.8801 0.8977
vt 0.8590 0.8937
vt 0.8391 0.8858
vn 0.0980 0.0000 -0.9952
vn 0.2903 0.0000 -0.9569
vn 0.4714 0.0000 -0.8819
vn 0.6344 0.0000 -0.7730
vn 0.7730 0.0000 -0.6344
vn 0.8819 0.0000 -0.4714
vn 0.9569 0.0000 -0.2903
vn 0.9952 0.0000 -0.0980
vn 0.9952 0.0000 0.0980
vn 0.9569 0.0000 0.2903
vn 0.8819 0.0000 0.4714
vn 0.7730 0.0000 0.6344
vn 0.6344 0.0000 0.7730
vn 0.4714 0.0000 0.8819
vn 0.2903 0.0000 0.9569
vn 0.0980 0.0000 0.9952
vn -0.0980 0.0000 0.9952
vn -0.2903 0.0000 0.9569
vn -0.4714 0.0000 0.8819
vn -0.6344 0.0000 0.7730
vn -0.7730 0.0000 0.6344
vn -0.8819 0.0000 0.4714
vn -0.9569 0.0000 0.2903
vn -0.9952 0.0000 0.0980
vn -0.9952 0.0000 -0.0980
vn -0.9569 0.0000 -0.2903
vn -0.8819 0.0000 -0.4714
vn -0.7730 0.0000 -0.6344
vn -0.6344 0.0000 -0.7730
vn -0.4714 0.0000 -0.8819
vn 0.0000 1.0000 -0.0000
vn -0.2903 0.0000 -0.9569
vn -0.0980 0.0000 -0.9952
vn 0.0000 -1.0000 0.0000
usemtl None
s off
f 1/1/1 2/2/1 4/3/1 3/4/1
f 3/4/2 4/3/2 6/5/2 5/6/2
f 5/6/3 6/5/3 8/7/3 7/8/3
f 7/8/4 8/7/4 10/9/4 9/10/4
f 9/10/5 10/9/5 12/11/5 11/12/5
f 11/13/6 12/14/6 14/15/6 13/16/6
f 13/16/7 14/15/7 16/17/7 15/18/7
f 15/18/8 16/17/8 18/19/8 17/20/8
f 17/20/9 18/19/9 20/21/9 19/22/9
f 19/22/10 20/21/10 22/23/10 21/24/10
f 21/24/11 22/23/11 24/25/11 23/26/11
f 23/26/12 24/25/12 26/27/12 25/28/12
f 25/29/13 26/30/13 28/31/13 27/32/13
f 27/32/14 28/31/14 30/33/14 29/34/14
f 29/34/15 30/33/15 32/35/15 31/36/15
f 31/36/16 32/35/16 34/37/16 33/38/16
f 33/38/17 34/37/17 36/39/17 35/40/17
f 35/40/18 36/39/18 38/41/18 37/42/18
f 37/42/19 38/41/19 40/43/19 39/44/19
f 39/44/20 40/43/20 42/45/20 41/46/20
f 41/47/21 42/48/21 44/49/21 43/50/21
f 43/50/22 44/49/22 46/51/22 45/52/22
f 45/52/23 46/51/23 48/53/23 47/54/23
f 47/54/24 48/53/24 50/55/24 49/56/24
f 49/56/25 50/55/25 52/57/25 51/58/25
f 51/58/26 52/57/26 54/59/26 53/60/26
f 53/60/27 54/59/27 56/61/27 55/62/27
f 55/62/28 56/61/28 58/63/28 57/64/28
f 57/65/29 58/66/29 60/67/29 59/68/29
f 59/68/30 60/67/30 62/69/30 61/70/30
f 4/71/31 2/72/31 64/73/31 62/74/31 60/75/31 58/76/31 56/77/31 54/78/31 52/79/31 50/80/31 48/81/31 46/82/31 44/83/31 42/84/31 40/85/31 38/86/31 36/87/31 34/88/31 32/89/31 30/90/31 28/91/31 26/92/31 24/93/31 22/94/31 20/95/31 18/96/31 16/97/31 14/98/31 12/99/31 10/100/31 8/101/31 6/102/31
f 61/70/32 62/69/32 64/103/32 63/104/32
f 63/104/33 64/103/33 2/2/33 1/1/33
f 1/105/34 3/106/34 5/107/34 7/108/34 9/109/34 11/110/34 13/111/34 15/112/34 17/113/34 19/114/34 21/115/34 23/116/34 25/117/34 27/118/34 29/119/34 31/120/34 33/121/34 35/122/34 37/123/34 39/124/34 41/125/34 43/126/34 45/127/34 47/128/34 49/129/34 51/130/34 53/131/34 55/132/34 57/133/34 59/134/34 61/135/34 63/136/34
f 65/137/1 66/138/1 68/139/1 67/140/1
f 67/140/2 68/139/2 70/141/2 69/142/2
f 69/142/3 70/141/3 72/143/3 71/144/3
f 71/144/4 72/143/4 74/145/4 73/146/4
f 73/146/5 74/145/5 76/147/5 75/148/5
f 75/149/6 76/150/6 78/151/6 77/152/6
f 77/152/7 78/151/7 80/153/7 79/154/7
f 79/154/8 80/153/8 82/155/8 81/156/8
f 81/156/9 82/155/9 84/157/9 83/158/9
f 83/158/10 84/157/10 86/159/10 85/160/10
f 85/160/11 86/159/11 88/161/11 87/162/11
f 87/162/12 88/161/12 90/163/12 89/164/12
f 89/165/13 90/166/13 92/167/13 91/168/13
f 91/168/14 92/167/14 94/169/14 93/170/14
f 93/170/15 94/169/15 96/171/15 95/172/15
f 95/172/16 96/171/16 98/173/16 97/174/16
f 97/174/17 98/173/17 100/175/17 99/176/17
f 99/176/18 100/175/18 102/177/18 101/178/18
f 101/178/19 102/177/19 104/179/19 103/180/19
f 103/181/20 104/182/20 106/183/20 105/184/20
f 105/184/21 106/183/21 108/185/21 107/186/21
f 107/186/22 108/185/22 110/187/22 109/188/22
f 109/188/23 110/187/23 112/189/23 111/190/23
f 111/190/24 112/189/24 114/191/24 113/192/24
f 113/192/25 114/191/25 116/193/25 115/194/25
f 115/194/26 116/193/26 118/195/26 117/196/26
f 117/196/27 118/195/27 120/197/27 119/198/27
f 119/198/28 120/197/28 122/199/28 121/200/28
f 121/201/29 122/202/29 124/203/29 123/204/29
f 123/204/30 124/203/30 126/205/30 125/206/30
f 68/207/31 66/208/31 128/209/31 126/210/31 124/211/31 122/212/31 120/213/31 118/214/31 116/215/31 114/216/31 112/217/31 110/218/31 108/219/31 106/220/31 104/221/31 102/222/31 100/223/31 98/224/31 96/225/31 94/226/31 92/227/31 90/228/31 88/229/31 86/230/31 84/231/31 82/232/31 80/233/31 78/234/31 76/235/31 74/236/31 72/237/31 70/238/31
f 125/206/32 126/205/32 128/239/32 127/240/32
f 127/240/33 128/239/33 66/138/33 65/137/33
f 65/241/34 67/242/34 69/243/34 71/244/34 73/245/34 75/246/34 77/247/34 79/248/34 81/249/34 83/250/34 85/251/34 87/252/34 89/253/34 91/254/34 93/255/34 95/256/34 97/257/34 99/258/34 101/259/34 103/260/34 105/261/34 107/262/34 109/263/34 111/264/34 113/265/34 115/266/34 117/267/34 119/268/34 121/269/34 123/270/34 125/271/34 127/272/34
