ply
format ascii 1.0
comment Created by Blender 2.78 (sub 0) - www.blender.org, source file: 'cylinder.blend'
element vertex 192
property float x
property float y
property float z
property float nx
property float ny
property float nz
property float s
property float t
element face 92
property list uchar uint vertex_indices
end_header
-0.000000 1.000000 -2.319989 0.098017 0.995185 0.000000 0.429345 0.699809
-0.000000 1.000000 2.319990 0.098017 0.995185 0.000000 0.429345 0.000000
0.195090 0.980785 2.319990 0.098017 0.995185 0.000000 0.463498 0.000000
0.195090 0.980785 -2.319989 0.098017 0.995185 0.000000 0.463498 0.699809
0.195090 0.980785 -2.319989 0.290285 0.956940 0.000000 0.463498 0.699809
0.195090 0.980785 2.319990 0.290285 0.956940 0.000000 0.463498 0.000000
0.382683 0.923879 2.319990 0.290285 0.956940 0.000000 0.495669 0.000000
0.382683 0.923879 -2.319989 0.290285 0.956940 0.000000 0.495669 0.699809
0.382683 0.923879 -2.319989 0.471397 0.881921 0.000000 0.495669 0.699809
0.382683 0.923879 2.319990 0.471397 0.881921 0.000000 0.495669 0.000000
0.555570 0.831469 2.319990 0.471397 0.881921 0.000000 0.524623 0.000000
0.555570 0.831469 -2.319989 0.471397 0.881921 0.000000 0.524623 0.699809
0.555570 0.831469 -2.319989 0.634393 0.773010 0.000000 0.524623 0.699809
0.555570 0.831469 2.319990 0.634393 0.773010 0.000000 0.524623 0.000000
0.707107 0.707106 2.319990 0.634393 0.773010 0.000000 0.549245 0.000000
0.707107 0.707106 -2.319989 0.634393 0.773010 0.000000 0.549245 0.699809
0.707107 0.707106 -2.319989 0.773010 0.634393 0.000000 0.274623 0.000000
0.707107 0.707106 2.319990 0.773010 0.634393 0.000000 0.274623 0.699809
0.831470 0.555570 2.319990 0.773010 0.634393 0.000000 0.250000 0.699809
0.831470 0.555570 -2.319989 0.773010 0.634393 0.000000 0.250000 0.000000
0.831470 0.555570 -2.319989 0.881921 0.471396 0.000000 0.250000 0.000000
0.831470 0.555570 2.319990 0.881921 0.471396 0.000000 0.250000 0.699809
0.923879 0.382683 2.319990 0.881921 0.471396 0.000000 0.221047 0.699809
0.923879 0.382683 -2.319989 0.881921 0.471396 0.000000 0.221047 0.000000
0.923879 0.382683 -2.319989 0.956940 0.290285 0.000000 0.221047 0.000000
0.923879 0.382683 2.319990 0.956940 0.290285 0.000000 0.221047 0.699809
0.980785 0.195090 2.319990 0.956940 0.290285 0.000000 0.188875 0.699809
0.980785 0.195090 -2.319989 0.956940 0.290285 0.000000 0.188875 0.000000
0.980785 0.195090 -2.319989 0.995185 0.098017 0.000000 0.188875 0.000000
0.980785 0.195090 2.319990 0.995185 0.098017 0.000000 0.188875 0.699809
1.000000 -0.000000 2.319990 0.995185 0.098017 0.000000 0.154722 0.699809
1.000000 -0.000000 -2.319989 0.995185 0.098017 0.000000 0.154722 0.000000
1.000000 -0.000000 -2.319989 0.995185 -0.098017 0.000000 0.154722 0.000000
1.000000 -0.000000 2.319990 0.995185 -0.098017 0.000000 0.154722 0.699809
0.980785 -0.195091 2.319990 0.995185 -0.098017 0.000000 0.119900 0.699809
0.980785 -0.195091 -2.319989 0.995185 -0.098017 0.000000 0.119900 0.000000
0.980785 -0.195091 -2.319989 0.956940 -0.290285 0.000000 0.119900 0.000000
0.980785 -0.195091 2.319990 0.956940 -0.290285 0.000000 0.119900 0.699809
0.923880 -0.382684 2.319990 0.956940 -0.290285 0.000000 0.085748 0.699809
0.923880 -0.382684 -2.319989 0.956940 -0.290285 0.000000 0.085748 0.000000
0.923880 -0.382684 -2.319989 0.881921 -0.471397 0.000000 0.085748 0.000000
0.923880 -0.382684 2.319990 0.881921 -0.471397 0.000000 0.085748 0.699809
0.831470 -0.555570 2.319990 0.881921 -0.471397 0.000000 0.053576 0.699809
0.831470 -0.555570 -2.319989 0.881921 -0.471397 0.000000 0.053576 0.000000
0.831470 -0.555570 -2.319989 0.773010 -0.634393 0.000000 0.053576 0.000000
0.831470 -0.555570 2.319990 0.773010 -0.634393 0.000000 0.053576 0.699809
0.707107 -0.707107 2.319990 0.773010 -0.634393 0.000000 0.024623 0.699809
0.707107 -0.707107 -2.319989 0.773010 -0.634393 0.000000 0.024623 0.000000
0.707107 -0.707107 -2.319989 0.634393 -0.773010 0.000000 0.024623 0.000000
0.707107 -0.707107 2.319990 0.634393 -0.773010 0.000000 0.024623 0.699809
0.555570 -0.831470 2.319990 0.634393 -0.773010 0.000000 0.000000 0.699809
0.555570 -0.831470 -2.319989 0.634393 -0.773010 0.000000 0.000000 0.000000
0.555570 -0.831470 -2.319989 0.471397 -0.881921 0.000000 0.774623 0.699809
0.555570 -0.831470 2.319990 0.471397 -0.881921 0.000000 0.774623 0.000000
0.382683 -0.923880 2.319990 0.471397 -0.881921 0.000000 0.803576 0.000000
0.382683 -0.923880 -2.319989 0.471397 -0.881921 0.000000 0.803576 0.699809
0.382683 -0.923880 -2.319989 0.290284 -0.956940 0.000000 0.803576 0.699809
0.382683 -0.923880 2.319990 0.290284 -0.956940 0.000000 0.803576 0.000000
0.195090 -0.980786 2.319990 0.290284 -0.956940 0.000000 0.835747 0.000000
0.195090 -0.980786 -2.319989 0.290284 -0.956940 0.000000 0.835748 0.699809
0.195090 -0.980786 -2.319989 0.098017 -0.995185 0.000000 0.835748 0.699809
0.195090 -0.980786 2.319990 0.098017 -0.995185 0.000000 0.835747 0.000000
-0.000000 -1.000000 2.319990 0.098017 -0.995185 0.000000 0.869900 0.000000
-0.000000 -1.000000 -2.319989 0.098017 -0.995185 0.000000 0.869900 0.699809
-0.000000 -1.000000 -2.319989 -0.098018 -0.995185 0.000000 0.869900 0.699809
-0.000000 -1.000000 2.319990 -0.098018 -0.995185 0.000000 0.869900 0.000000
-0.195091 -0.980785 2.319990 -0.098018 -0.995185 0.000000 0.904722 0.000000
-0.195091 -0.980785 -2.319989 -0.098018 -0.995185 0.000000 0.904722 0.699809
-0.195091 -0.980785 -2.319989 -0.290285 -0.956940 0.000000 0.904722 0.699809
-0.195091 -0.980785 2.319990 -0.290285 -0.956940 0.000000 0.904722 0.000000
-0.382684 -0.923880 2.319990 -0.290285 -0.956940 0.000000 0.938875 0.000000
-0.382684 -0.923880 -2.319989 -0.290285 -0.956940 0.000000 0.938875 0.699809
-0.382684 -0.923880 -2.319989 -0.471397 -0.881921 0.000000 0.938875 0.699809
-0.382684 -0.923880 2.319990 -0.471397 -0.881921 0.000000 0.938875 0.000000
-0.555571 -0.831470 2.319990 -0.471397 -0.881921 0.000000 0.971047 0.000000
-0.555571 -0.831470 -2.319989 -0.471397 -0.881921 0.000000 0.971047 0.699809
-0.555571 -0.831470 -2.319989 -0.634394 -0.773010 0.000000 0.971047 0.699809
-0.555571 -0.831470 2.319990 -0.634394 -0.773010 0.000000 0.971047 0.000000
-0.707107 -0.707107 2.319990 -0.634394 -0.773010 0.000000 1.000000 0.000000
-0.707107 -0.707107 -2.319989 -0.634394 -0.773010 0.000000 1.000000 0.699809
-0.707107 -0.707107 -2.319989 -0.773011 -0.634393 0.000000 0.549246 0.699809
-0.707107 -0.707107 2.319990 -0.773011 -0.634393 0.000000 0.549245 0.000000
-0.831470 -0.555570 2.319990 -0.773011 -0.634393 0.000000 0.578199 0.000000
-0.831470 -0.555570 -2.319989 -0.773011 -0.634393 0.000000 0.578199 0.699809
-0.831470 -0.555570 -2.319989 -0.881922 -0.471396 0.000000 0.578199 0.699809
-0.831470 -0.555570 2.319990 -0.881922 -0.471396 0.000000 0.578199 0.000000
-0.923880 -0.382683 2.319990 -0.881922 -0.471396 0.000000 0.610370 0.000000
-0.923880 -0.382683 -2.319989 -0.881922 -0.471396 0.000000 0.610370 0.699809
-0.923880 -0.382683 -2.319989 -0.956941 -0.290284 0.000000 0.610370 0.699809
-0.923880 -0.382683 2.319990 -0.956941 -0.290284 0.000000 0.610370 0.000000
-0.980785 -0.195090 2.319990 -0.956941 -0.290284 0.000000 0.644523 0.000000
-0.980785 -0.195090 -2.319989 -0.956941 -0.290284 0.000000 0.644523 0.699809
-0.980785 -0.195090 -2.319989 -0.995185 -0.098016 0.000000 0.644523 0.699809
-0.980785 -0.195090 2.319990 -0.995185 -0.098016 0.000000 0.644523 0.000000
-1.000000 0.000001 2.319990 -0.995185 -0.098016 0.000000 0.679345 0.000000
-1.000000 0.000001 -2.319989 -0.995185 -0.098016 0.000000 0.679345 0.699809
-1.000000 0.000001 -2.319989 -0.995185 0.098018 0.000000 0.679345 0.699809
-1.000000 0.000001 2.319990 -0.995185 0.098018 0.000000 0.679345 0.000000
-0.980785 0.195091 2.319990 -0.995185 0.098018 0.000000 0.713498 0.000000
-0.980785 0.195091 -2.319989 -0.995185 0.098018 0.000000 0.713498 0.699809
-0.980785 0.195091 -2.319989 -0.956940 0.290286 0.000000 0.713498 0.699809
-0.980785 0.195091 2.319990 -0.956940 0.290286 0.000000 0.713498 0.000000
-0.923879 0.382684 2.319990 -0.956940 0.290286 0.000000 0.745669 0.000000
-0.923879 0.382684 -2.319989 -0.956940 0.290286 0.000000 0.745669 0.699809
-0.923879 0.382684 -2.319989 -0.881921 0.471398 0.000000 0.745669 0.699809
-0.923879 0.382684 2.319990 -0.881921 0.471398 0.000000 0.745669 0.000000
-0.831469 0.555571 2.319990 -0.881921 0.471398 0.000000 0.774623 0.000000
-0.831469 0.555571 -2.319989 -0.881921 0.471398 0.000000 0.774623 0.699809
-0.831469 0.555571 -2.319989 -0.773010 0.634394 0.000000 0.274623 0.699809
-0.831469 0.555571 2.319990 -0.773010 0.634394 0.000000 0.274623 0.000000
-0.707106 0.707107 2.319990 -0.773010 0.634394 0.000000 0.299246 0.000000
-0.707106 0.707107 -2.319989 -0.773010 0.634394 0.000000 0.299246 0.699809
-0.707106 0.707107 -2.319989 -0.634392 0.773011 0.000000 0.299246 0.699809
-0.707106 0.707107 2.319990 -0.634392 0.773011 0.000000 0.299246 0.000000
-0.555569 0.831470 2.319990 -0.634392 0.773011 0.000000 0.328199 0.000000
-0.555569 0.831470 -2.319989 -0.634392 0.773011 0.000000 0.328199 0.699809
-0.555569 0.831470 -2.319989 -0.471395 0.881922 0.000000 0.328199 0.699809
-0.555569 0.831470 2.319990 -0.471395 0.881922 0.000000 0.328199 0.000000
-0.382682 0.923880 2.319990 -0.471395 0.881922 0.000000 0.360370 0.000000
-0.382682 0.923880 -2.319989 -0.471395 0.881922 0.000000 0.360370 0.699809
0.382683 0.923879 2.319990 0.000000 0.000000 1.000000 0.547741 1.000000
0.195090 0.980785 2.319990 0.000000 0.000000 1.000000 0.512919 1.000000
-0.000000 1.000000 2.319990 0.000000 0.000000 1.000000 0.478766 0.994232
-0.195089 0.980785 2.319990 0.000000 0.000000 1.000000 0.446595 0.982918
-0.382682 0.923880 2.319990 0.000000 0.000000 1.000000 0.417642 0.966491
-0.555569 0.831470 2.319990 0.000000 0.000000 1.000000 0.393019 0.945585
-0.707106 0.707107 2.319990 0.000000 0.000000 1.000000 0.373673 0.921002
-0.831469 0.555571 2.319990 0.000000 0.000000 1.000000 0.360347 0.893686
-0.923879 0.382684 2.319990 0.000000 0.000000 1.000000 0.353553 0.864688
-0.980785 0.195091 2.319990 0.000000 0.000000 1.000000 0.353553 0.835122
-1.000000 0.000001 2.319990 0.000000 0.000000 1.000000 0.360347 0.806124
-0.980785 -0.195090 2.319990 0.000000 0.000000 1.000000 0.373672 0.778808
-0.923880 -0.382683 2.319990 0.000000 0.000000 1.000000 0.393018 0.754224
-0.831470 -0.555570 2.319990 0.000000 0.000000 1.000000 0.417641 0.733318
-0.707107 -0.707107 2.319990 0.000000 0.000000 1.000000 0.446595 0.716892
-0.555571 -0.831470 2.319990 0.000000 0.000000 1.000000 0.478766 0.705577
-0.382684 -0.923880 2.319990 0.000000 0.000000 1.000000 0.512919 0.699809
-0.195091 -0.980785 2.319990 0.000000 0.000000 1.000000 0.547741 0.699809
-0.000000 -1.000000 2.319990 0.000000 0.000000 1.000000 0.581894 0.705577
0.195090 -0.980786 2.319990 0.000000 0.000000 1.000000 0.614065 0.716892
0.382683 -0.923880 2.319990 0.000000 0.000000 1.000000 0.643018 0.733318
0.555570 -0.831470 2.319990 0.000000 0.000000 1.000000 0.667641 0.754224
0.707107 -0.707107 2.319990 0.000000 0.000000 1.000000 0.686987 0.778808
0.831470 -0.555570 2.319990 0.000000 0.000000 1.000000 0.700313 0.806123
0.923880 -0.382684 2.319990 0.000000 0.000000 1.000000 0.707107 0.835122
0.980785 -0.195091 2.319990 0.000000 0.000000 1.000000 0.707107 0.864688
1.000000 -0.000000 2.319990 0.000000 0.000000 1.000000 0.700313 0.893686
0.980785 0.195090 2.319990 0.000000 0.000000 1.000000 0.686987 0.921001
0.923879 0.382683 2.319990 0.000000 0.000000 1.000000 0.667641 0.945585
0.831470 0.555570 2.319990 0.000000 0.000000 1.000000 0.643018 0.966491
0.707107 0.707106 2.319990 0.000000 0.000000 1.000000 0.614065 0.982917
0.555570 0.831469 2.319990 0.000000 0.000000 1.000000 0.581894 0.994232
-0.382682 0.923880 -2.319989 -0.290283 0.956941 0.000000 0.360370 0.699809
-0.382682 0.923880 2.319990 -0.290283 0.956941 0.000000 0.360370 0.000000
-0.195089 0.980785 2.319990 -0.290283 0.956941 0.000000 0.394523 0.000000
-0.195089 0.980785 -2.319989 -0.290283 0.956941 0.000000 0.394523 0.699809
-0.000000 1.000000 2.319990 -0.098017 0.995185 0.000000 0.429345 0.000000
-0.000000 1.000000 -2.319989 -0.098017 0.995185 0.000000 0.429345 0.699809
-0.195089 0.980785 -2.319989 -0.098017 0.995185 0.000000 0.394523 0.699809
-0.195089 0.980785 2.319990 -0.098017 0.995185 0.000000 0.394523 0.000000
-0.195089 0.980785 -2.319989 -0.000000 0.000000 -1.000000 0.020119 0.921001
-0.000000 1.000000 -2.319989 -0.000000 0.000000 -1.000000 0.006793 0.893686
0.195090 0.980785 -2.319989 -0.000000 0.000000 -1.000000 0.000000 0.864688
0.382683 0.923879 -2.319989 0.000000 0.000000 -1.000000 0.000000 0.835122
0.555570 0.831469 -2.319989 0.000000 0.000000 -1.000000 0.006793 0.806123
0.707107 0.707106 -2.319989 0.000000 0.000000 -1.000000 0.020119 0.778808
0.831470 0.555570 -2.319989 0.000000 0.000000 -1.000000 0.039465 0.754224
0.923879 0.382683 -2.319989 0.000000 0.000000 -1.000000 0.064088 0.733318
0.980785 0.195090 -2.319989 0.000000 0.000000 -1.000000 0.093041 0.716892
1.000000 -0.000000 -2.319989 0.000000 0.000000 -1.000000 0.125213 0.705577
0.980785 -0.195091 -2.319989 0.000000 0.000000 -1.000000 0.159366 0.699809
0.923880 -0.382684 -2.319989 0.000000 0.000000 -1.000000 0.194188 0.699809
0.831470 -0.555570 -2.319989 0.000000 0.000000 -1.000000 0.228340 0.705577
0.707107 -0.707107 -2.319989 0.000000 0.000000 -1.000000 0.260512 0.716892
0.555570 -0.831470 -2.319989 0.000000 0.000000 -1.000000 0.289465 0.733318
0.382683 -0.923880 -2.319989 0.000000 0.000000 -1.000000 0.314088 0.754224
0.195090 -0.980786 -2.319989 0.000000 0.000000 -1.000000 0.333434 0.778808
-0.000000 -1.000000 -2.319989 0.000000 0.000000 -1.000000 0.346760 0.806123
-0.195091 -0.980785 -2.319989 0.000000 0.000000 -1.000000 0.353553 0.835122
-0.382684 -0.923880 -2.319989 0.000000 0.000000 -1.000000 0.353553 0.864688
-0.555571 -0.831470 -2.319989 0.000000 0.000000 -1.000000 0.346760 0.893686
-0.707107 -0.707107 -2.319989 0.000000 0.000000 -1.000000 0.333434 0.921001
-0.831470 -0.555570 -2.319989 0.000000 0.000000 -1.000000 0.314088 0.945585
-0.923880 -0.382683 -2.319989 0.000000 0.000000 -1.000000 0.289465 0.966491
-0.980785 -0.195090 -2.319989 0.000000 0.000000 -1.000000 0.260512 0.982917
-1.000000 0.000001 -2.319989 0.000000 -0.000000 -1.000000 0.228340 0.994232
-0.980785 0.195091 -2.319989 0.000000 -0.000000 -1.000000 0.194188 1.000000
-0.923879 0.382684 -2.319989 0.000000 0.000000 -1.000000 0.159366 1.000000
-0.831469 0.555571 -2.319989 0.000000 0.000000 -1.000000 0.125213 0.994232
-0.707106 0.707107 -2.319989 0.000000 0.000000 -1.000000 0.093041 0.982917
-0.555569 0.831470 -2.319989 0.000000 0.000000 -1.000000 0.064088 0.966491
-0.382682 0.923880 -2.319989 0.000000 0.000000 -1.000000 0.039465 0.945585
4 0 1 2 3
4 4 5 6 7
4 8 9 10 11
4 12 13 14 15
4 16 17 18 19
4 20 21 22 23
4 24 25 26 27
4 28 29 30 31
4 32 33 34 35
4 36 37 38 39
4 40 41 42 43
4 44 45 46 47
4 48 49 50 51
4 52 53 54 55
4 56 57 58 59
4 60 61 62 63
4 64 65 66 67
4 68 69 70 71
4 72 73 74 75
4 76 77 78 79
4 80 81 82 83
4 84 85 86 87
4 88 89 90 91
4 92 93 94 95
4 96 97 98 99
4 100 101 102 103
4 104 105 106 107
4 108 109 110 111
4 112 113 114 115
4 116 117 118 119
3 120 121 122
3 122 123 124
3 124 125 126
3 126 127 128
3 128 129 130
3 130 131 132
3 132 133 134
3 134 135 136
3 136 137 138
3 138 139 140
3 140 141 142
3 142 143 144
3 144 145 146
3 146 147 148
3 148 149 150
3 150 151 120
3 120 122 124
3 124 126 128
3 128 130 132
3 132 134 136
3 136 138 140
3 140 142 144
3 144 146 148
3 148 150 120
3 120 124 128
3 128 132 136
3 136 140 144
3 144 148 120
3 120 128 136
3 136 144 120
4 152 153 154 155
4 156 157 158 159
3 160 161 162
3 162 163 164
3 164 165 166
3 166 167 168
3 168 169 170
3 170 171 172
3 172 173 174
3 174 175 176
3 176 177 178
3 178 179 180
3 180 181 182
3 182 183 184
3 184 185 186
3 186 187 188
3 188 189 190
3 190 191 160
3 160 162 164
3 164 166 168
3 168 170 172
3 172 174 176
3 176 178 180
3 180 182 184
3 184 186 188
3 188 190 160
3 160 164 168
3 168 172 176
3 176 180 184
3 184 188 160
3 160 168 176
3 176 184 160
