# Blender v2.78 (sub 0) OBJ File: 'cylinder.blend'
# www.blender.org
mtllib cylinder.mtl
o Cylinder
v -0.000000 -2.319989 -1.000000
v -0.000000 2.319990 -1.000000
v 0.195090 -2.319989 -0.980785
v 0.195090 2.319990 -0.980785
v 0.382683 -2.319989 -0.923879
v 0.382683 2.319990 -0.923879
v 0.555570 -2.319989 -0.831469
v 0.555570 2.319990 -0.831469
v 0.707107 -2.319989 -0.707106
v 0.707107 2.319990 -0.707106
v 0.831470 -2.319989 -0.555570
v 0.831470 2.319990 -0.555570
v 0.923879 -2.319989 -0.382683
v 0.923879 2.319990 -0.382683
v 0.980785 -2.319989 -0.195090
v 0.980785 2.319990 -0.195090
v 1.000000 -2.319989 0.000000
v 1.000000 2.319990 0.000000
v 0.980785 -2.319989 0.195091
v 0.980785 2.319990 0.195091
v 0.923880 -2.319989 0.382684
v 0.923880 2.319990 0.382684
v 0.831470 -2.319989 0.555570
v 0.831470 2.319990 0.555570
v 0.707107 -2.319989 0.707107
v 0.707107 2.319990 0.707107
v 0.555570 -2.319989 0.831470
v 0.555570 2.319990 0.831470
v 0.382683 -2.319989 0.923880
v 0.382683 2.319990 0.923880
v 0.195090 -2.319989 0.980786
v 0.195090 2.319990 0.980786
v -0.000000 -2.319989 1.000000
v -0.000000 2.319990 1.000000
v -0.195091 -2.319989 0.980785
v -0.195091 2.319990 0.980785
v -0.382684 -2.319989 0.923880
v -0.382684 2.319990 0.923880
v -0.555571 -2.319989 0.831470
v -0.555571 2.319990 0.831470
v -0.707107 -2.319989 0.707107
v -0.707107 2.319990 0.707107
v -0.831470 -2.319989 0.555570
v -0.831470 2.319990 0.555570
v -0.923880 -2.319989 0.382683
v -0.923880 2.319990 0.382683
v -0.980785 -2.319989 0.195090
v -0.980785 2.319990 0.195090
v -1.000000 -2.319989 -0.000001
v -1.000000 2.319990 -0.000001
v -0.980785 -2.319989 -0.195091
v -0.980785 2.319990 -0.195091
v -0.923879 -2.319989 -0.382684
v -0.923879 2.319990 -0.382684
v -0.831469 -2.319989 -0.555571
v -0.831469 2.319990 -0.555571
v -0.707106 -2.319989 -0.707107
v -0.707106 2.319990 -0.707107
v -0.555569 -2.319989 -0.831470
v -0.555569 2.319990 -0.831470
v -0.382682 -2.319989 -0.923880
v -0.382682 2.319990 -0.923880
v -0.195089 -2.319989 -0.980785
v -0.195089 2.319990 -0.980785
vt 0.4293 0.6998
vt 0.4293 0.0000
vt 0.4635 0.0000
vt 0.4635 0.6998
vt 0.4957 0.0000
vt 0.4957 0.6998
vt 0.5246 0.0000
vt 0.5246 0.6998
vt 0.5492 0.0000
vt 0.5492 0.6998
vt 0.2746 0.0000
vt 0.2746 0.6998
vt 0.2500 0.6998
vt 0.2500 0.0000
vt 0.2210 0.6998
vt 0.2210 0.0000
vt 0.1889 0.6998
vt 0.1889 0.0000
vt 0.1547 0.6998
vt 0.1547 0.0000
vt 0.1199 0.6998
vt 0.1199 0.0000
vt 0.0857 0.6998
vt 0.0857 0.0000
vt 0.0536 0.6998
vt 0.0536 0.0000
vt 0.0246 0.6998
vt 0.0246 0.0000
vt 0.0000 0.6998
vt 0.0000 0.0000
vt 0.7746 0.6998
vt 0.7746 0.0000
vt 0.8036 0.0000
vt 0.8036 0.6998
vt 0.8357 0.0000
vt 0.8357 0.6998
vt 0.8699 0.0000
vt 0.8699 0.6998
vt 0.9047 0.0000
vt 0.9047 0.6998
vt 0.9389 0.0000
vt 0.9389 0.6998
vt 0.9710 0.0000
vt 0.9710 0.6998
vt 1.0000 0.0000
vt 1.0000 0.6998
vt 0.5492 0.6998
vt 0.5492 0.0000
vt 0.5782 0.0000
vt 0.5782 0.6998
vt 0.6104 0.0000
vt 0.6104 0.6998
vt 0.6445 0.0000
vt 0.6445 0.6998
vt 0.6793 0.0000
vt 0.6793 0.6998
vt 0.7135 0.0000
vt 0.7135 0.6998
vt 0.7457 0.0000
vt 0.7457 0.6998
vt 0.7746 0.0000
vt 0.7746 0.6998
vt 0.2746 0.6998
vt 0.2746 0.0000
vt 0.2992 0.0000
vt 0.2992 0.6998
vt 0.3282 0.0000
vt 0.3282 0.6998
vt 0.3604 0.0000
vt 0.3604 0.6998
vt 0.5129 1.0000
vt 0.4788 0.9942
vt 0.4466 0.9829
vt 0.4176 0.9665
vt 0.3930 0.9456
vt 0.3737 0.9210
vt 0.3603 0.8937
vt 0.3536 0.8647
vt 0.3536 0.8351
vt 0.3603 0.8061
vt 0.3737 0.7788
vt 0.3930 0.7542
vt 0.4176 0.7333
vt 0.4466 0.7169
vt 0.4788 0.7056
vt 0.5129 0.6998
vt 0.5477 0.6998
vt 0.5819 0.7056
vt 0.6141 0.7169
vt 0.6430 0.7333
vt 0.6676 0.7542
vt 0.6870 0.7788
vt 0.7003 0.8061
vt 0.7071 0.8351
vt 0.7071 0.8647
vt 0.7003 0.8937
vt 0.6870 0.9210
vt 0.6676 0.9456
vt 0.6430 0.9665
vt 0.6141 0.9829
vt 0.5819 0.9942
vt 0.5477 1.0000
vt 0.3945 0.0000
vt 0.3945 0.6998
vt 0.0068 0.8937
vt 0.0000 0.8647
vt 0.0000 0.8351
vt 0.0068 0.8061
vt 0.0201 0.7788
vt 0.0395 0.7542
vt 0.0641 0.7333
vt 0.0930 0.7169
vt 0.1252 0.7056
vt 0.1594 0.6998
vt 0.1942 0.6998
vt 0.2283 0.7056
vt 0.2605 0.7169
vt 0.2895 0.7333
vt 0.3141 0.7542
vt 0.3334 0.7788
vt 0.3468 0.8061
vt 0.3536 0.8351
vt 0.3536 0.8647
vt 0.3468 0.8937
vt 0.3334 0.9210
vt 0.3141 0.9456
vt 0.2895 0.9665
vt 0.2605 0.9829
vt 0.2283 0.9942
vt 0.1942 1.0000
vt 0.1594 1.0000
vt 0.1252 0.9942
vt 0.0930 0.9829
vt 0.0641 0.9665
vt 0.0395 0.9456
vt 0.0201 0.9210
vn 0.0980 0.0000 -0.9952
vn 0.2903 0.0000 -0.9569
vn 0.4714 0.0000 -0.8819
vn 0.6344 0.0000 -0.7730
vn 0.7730 0.0000 -0.6344
vn 0.8819 0.0000 -0.4714
vn 0.9569 0.0000 -0.2903
vn 0.9952 0.0000 -0.0980
vn 0.9952 0.0000 0.0980
vn 0.9569 0.0000 0.2903
vn 0.8819 0.0000 0.4714
vn 0.7730 0.0000 0.6344
vn 0.6344 0.0000 0.7730
vn 0.4714 0.0000 0.8819
vn 0.2903 0.0000 0.9569
vn 0.0980 0.0000 0.9952
vn -0.0980 0.0000 0.9952
vn -0.2903 0.0000 0.9569
vn -0.4714 0.0000 0.8819
vn -0.6344 0.0000 0.7730
vn -0.7730 0.0000 0.6344
vn -0.8819 0.0000 0.4714
vn -0.9569 0.0000 0.2903
vn -0.9952 0.0000 0.0980
vn -0.9952 0.0000 -0.0980
vn -0.9569 0.0000 -0.2903
vn -0.8819 0.0000 -0.4714
vn -0.7730 0.0000 -0.6344
vn -0.6344 0.0000 -0.7730
vn -0.4714 0.0000 -0.8819
vn 0.0000 1.0000 0.0000
vn -0.2903 0.0000 -0.9569
vn -0.0980 0.0000 -0.9952
vn 0.0000 -1.0000 0.0000
usemtl None
s off
f 1/1/1 2/2/1 4/3/1 3/4/1
f 3/4/2 4/3/2 6/5/2 5/6/2
f 5/6/3 6/5/3 8/7/3 7/8/3
f 7/8/4 8/7/4 10/9/4 9/10/4
f 9/11/5 10/12/5 12/13/5 11/14/5
f 11/14/6 12/13/6 14/15/6 13/16/6
f 13/16/7 14/15/7 16/17/7 15/18/7
f 15/18/8 16/17/8 18/19/8 17/20/8
f 17/20/9 18/19/9 20/21/9 19/22/9
f 19/22/10 20/21/10 22/23/10 21/24/10
f 21/24/11 22/23/11 24/25/11 23/26/11
f 23/26/12 24/25/12 26/27/12 25/28/12
f 25/28/13 26/27/13 28/29/13 27/30/13
f 27/31/14 28/32/14 30/33/14 29/34/14
f 29/34/15 30/33/15 32/35/15 31/36/15
f 31/36/16 32/35/16 34/37/16 33/38/16
f 33/38/17 34/37/17 36/39/17 35/40/17
f 35/40/18 36/39/18 38/41/18 37/42/18
f 37/42/19 38/41/19 40/43/19 39/44/19
f 39/44/20 40/43/20 42/45/20 41/46/20
f 41/47/21 42/48/21 44/49/21 43/50/21
f 43/50/22 44/49/22 46/51/22 45/52/22
f 45/52/23 46/51/23 48/53/23 47/54/23
f 47/54/24 48/53/24 50/55/24 49/56/24
f 49/56/25 50/55/25 52/57/25 51/58/25
f 51/58/26 52/57/26 54/59/26 53/60/26
f 53/60/27 54/59/27 56/61/27 55/62/27
f 55/63/28 56/64/28 58/65/28 57/66/28
f 57/66/29 58/65/29 60/67/29 59/68/29
f 59/68/30 60/67/30 62/69/30 61/70/30
f 4/71/31 2/72/31 64/73/31 62/74/31 60/75/31 58/76/31 56/77/31 54/78/31 52/79/31 50/80/31 48/81/31 46/82/31 44/83/31 42/84/31 40/85/31 38/86/31 36/87/31 34/88/31 32/89/31 30/90/31 28/91/31 26/92/31 24/93/31 22/94/31 20/95/31 18/96/31 16/97/31 14/98/31 12/99/31 10/100/31 8/101/31 6/102/31
f 61/70/32 62/69/32 64/103/32 63/104/32
f 63/104/33 64/103/33 2/2/33 1/1/33
f 1/105/34 3/106/34 5/107/34 7/108/34 9/109/34 11/110/34 13/111/34 15/112/34 17/113/34 19/114/34 21/115/34 23/116/34 25/117/34 27/118/34 29/119/34 31/120/34 33/121/34 35/122/34 37/123/34 39/124/34 41/125/34 43/126/34 45/127/34 47/128/34 49/129/34 51/130/34 53/131/34 55/132/34 57/133/34 59/134/34 61/135/34 63/136/34
