# Blender v2.78 (sub 0) OBJ File: 'AimArrow.blend'
# www.blender.org
mtllib AimArrow.mtl
o Plane_Plane.001
v -1.000000 0.000000 1.000000
v 1.000000 0.000000 0.000000
v -1.000000 0.000000 -1.000000
v -1.000000 0.502663 1.000000
v 1.000000 0.502663 0.000000
v -1.000000 0.502663 -1.000000
vt 0.4384 0.5000
vt 0.0000 0.3000
vt 0.4384 0.0000
vt 0.4384 0.3000
vt 0.8768 0.0000
vt 0.8768 0.5000
vt 0.1232 0.5000
vt 0.1232 1.0000
vt 0.0000 1.0000
vt 0.0000 0.5000
vt 0.8768 0.5000
vt 0.8768 0.0000
vt 1.0000 0.0000
vt 1.0000 0.5000
vt 0.2464 0.5000
vt 0.2464 0.9472
vt 0.1232 0.9472
vt 0.1232 0.5000
vn 0.0000 -1.0000 0.0000
vn 0.0000 1.0000 0.0000
vn 0.4472 0.0000 -0.8944
vn 0.4472 0.0000 0.8944
vn -1.0000 0.0000 0.0000
usemtl None
s off
f 1/1/1 3/2/1 2/3/1
f 4/4/2 5/5/2 6/6/2
f 2/7/3 3/8/3 6/9/3 5/10/3
f 1/11/4 2/12/4 5/13/4 4/14/4
f 3/15/5 1/16/5 4/17/5 6/18/5
